<?xml version="1.0" encoding="UTF-8"?><svg xmlns="http://www.w3.org/2000/svg" xmlns:xlink="http://www.w3.org/1999/xlink" fill-opacity="1" color-rendering="auto" color-interpolation="auto" text-rendering="auto" stroke="black" stroke-linecap="square" width="783" stroke-miterlimit="10" shape-rendering="auto" stroke-opacity="1" fill="black" stroke-dasharray="none" font-weight="normal" stroke-width="1" height="573" font-family="'Dialog'" font-style="normal" stroke-linejoin="miter" font-size="12px" stroke-dashoffset="0" image-rendering="auto">
  <!--Generated by ySVG 2.6-->
  <defs id="genericDefs"/>
  <g>
    <defs id="defs1">
      <clipPath clipPathUnits="userSpaceOnUse" id="clipPath1">
        <path d="M0 0 L783 0 L783 573 L0 573 L0 0 Z"/>
      </clipPath>
      <clipPath clipPathUnits="userSpaceOnUse" id="clipPath2">
        <path d="M-51 -25 L732 -25 L732 548 L-51 548 L-51 -25 Z"/>
      </clipPath>
    </defs>
    <g fill="white" text-rendering="geometricPrecision" shape-rendering="geometricPrecision" transform="translate(51,25)" stroke="white">
      <rect x="-51" width="783" height="573" y="-25" clip-path="url(#clipPath2)" stroke="none"/>
    </g>
    <g transform="matrix(1,0,0,1,51,25)" fill-opacity="0.1804" fill="rgb(238,237,229)" text-rendering="geometricPrecision" shape-rendering="geometricPrecision" stroke="rgb(238,237,229)" stroke-opacity="0.1804">
      <rect x="138.9462" width="577.4028" height="400.3125" y="-9.9045" clip-path="url(#clipPath2)" stroke="none"/>
    </g>
    <g text-rendering="geometricPrecision" stroke-miterlimit="1.45" stroke-dasharray="6,2" shape-rendering="geometricPrecision" transform="matrix(1,0,0,1,51,25)" stroke-linecap="butt">
      <rect fill="none" x="138.9462" width="577.4028" height="400.3125" y="-9.9045" clip-path="url(#clipPath2)"/>
    </g>
    <g fill="rgb(245,245,245)" text-rendering="geometricPrecision" shape-rendering="geometricPrecision" transform="matrix(1,0,0,1,51,25)" stroke="rgb(245,245,245)">
      <rect x="163.375" y="3.584" clip-path="url(#clipPath2)" width="155" rx="4" ry="4" height="107.166" stroke="none"/>
      <rect x="163.375" y="3.584" clip-path="url(#clipPath2)" fill="rgb(235,235,235)" width="155" height="21.666" stroke="none"/>
    </g>
    <g font-size="15px" stroke-linecap="butt" transform="matrix(1,0,0,1,51,25)" text-rendering="geometricPrecision" font-family="sans-serif" shape-rendering="geometricPrecision" stroke-miterlimit="1.45">
      <text x="267.3394" xml:space="preserve" y="20.0859" clip-path="url(#clipPath2)" stroke="none">handle</text>
      <rect x="163.375" y="3.584" clip-path="url(#clipPath2)" fill="none" width="155" stroke-dasharray="6,2" rx="4" ry="4" height="107.166"/>
    </g>
    <g transform="matrix(1,0,0,1,51,25)" fill-opacity="0.502" fill="rgb(182,216,235)" text-rendering="geometricPrecision" shape-rendering="geometricPrecision" stroke="rgb(182,216,235)" stroke-opacity="0.502">
      <rect x="182.5" y="40.25" clip-path="url(#clipPath2)" width="90" rx="4" ry="4" height="50" stroke="none"/>
    </g>
    <g fill="rgb(153,204,255)" text-rendering="geometricPrecision" shape-rendering="geometricPrecision" transform="matrix(1,0,0,1,51,25)" stroke="rgb(153,204,255)">
      <rect x="182.5" width="90" height="21.666" y="40.25" clip-path="url(#clipPath2)" stroke="none"/>
    </g>
    <g font-size="15px" stroke-linecap="butt" transform="matrix(1,0,0,1,51,25)" text-rendering="geometricPrecision" font-family="sans-serif" shape-rendering="geometricPrecision" stroke-miterlimit="1.45">
      <text x="215.3267" xml:space="preserve" y="56.752" clip-path="url(#clipPath2)" stroke="none">handler</text>
    </g>
    <g stroke-linecap="round" transform="matrix(1,0,0,1,51,25)" stroke-dashoffset="2" fill="rgb(102,102,153)" text-rendering="geometricPrecision" shape-rendering="geometricPrecision" stroke-dasharray="0,4" stroke="rgb(102,102,153)" stroke-miterlimit="1.45">
      <rect x="182.5" y="40.25" clip-path="url(#clipPath2)" fill="none" width="90" rx="4" ry="4" height="50"/>
    </g>
    <g transform="matrix(1,0,0,1,51,25)" fill-opacity="0.5176" fill="rgb(202,236,255)" text-rendering="geometricPrecision" shape-rendering="geometricPrecision" stroke="rgb(202,236,255)" stroke-opacity="0.5176">
      <rect x="-35.1927" y="40.25" clip-path="url(#clipPath2)" width="102.5" rx="4" ry="4" height="50" stroke="none"/>
    </g>
    <g fill="rgb(153,204,255)" text-rendering="geometricPrecision" shape-rendering="geometricPrecision" transform="matrix(1,0,0,1,51,25)" stroke="rgb(153,204,255)">
      <rect x="-35.1927" width="102.5" height="21.666" y="40.25" clip-path="url(#clipPath2)" stroke="none"/>
    </g>
    <g font-size="15px" stroke-linecap="butt" transform="matrix(1,0,0,1,51,25)" text-rendering="geometricPrecision" font-family="sans-serif" shape-rendering="geometricPrecision" stroke-miterlimit="1.45">
      <text x="-8.2718" xml:space="preserve" y="56.752" clip-path="url(#clipPath2)" stroke="none">index.php</text>
    </g>
    <g stroke-linecap="round" transform="matrix(1,0,0,1,51,25)" stroke-dashoffset="2" fill="rgb(102,102,153)" text-rendering="geometricPrecision" shape-rendering="geometricPrecision" stroke-dasharray="0,4" stroke="rgb(102,102,153)" stroke-miterlimit="1.45">
      <rect x="-35.1927" y="40.25" clip-path="url(#clipPath2)" fill="none" width="102.5" rx="4" ry="4" height="50"/>
    </g>
    <g fill="rgb(245,245,245)" text-rendering="geometricPrecision" shape-rendering="geometricPrecision" transform="matrix(1,0,0,1,51,25)" stroke="rgb(245,245,245)">
      <rect x="461.4792" y="85.6128" clip-path="url(#clipPath2)" width="155" rx="4" ry="4" height="50" stroke="none"/>
      <rect x="461.4792" y="85.6128" clip-path="url(#clipPath2)" fill="rgb(235,235,235)" width="155" height="21.666" stroke="none"/>
    </g>
    <g font-size="15px" stroke-linecap="butt" transform="matrix(1,0,0,1,51,25)" text-rendering="geometricPrecision" font-family="sans-serif" shape-rendering="geometricPrecision" stroke-miterlimit="1.45">
      <text x="562.9753" xml:space="preserve" y="102.1148" clip-path="url(#clipPath2)" stroke="none">control</text>
      <rect x="461.4792" y="85.6128" clip-path="url(#clipPath2)" fill="none" width="155" stroke-dasharray="6,2" rx="4" ry="4" height="50"/>
    </g>
    <g fill="rgb(245,245,245)" text-rendering="geometricPrecision" shape-rendering="geometricPrecision" transform="matrix(1,0,0,1,51,25)" stroke="rgb(245,245,245)">
      <rect x="282.75" y="140.75" clip-path="url(#clipPath2)" width="155" rx="4" ry="4" height="50" stroke="none"/>
      <rect x="282.75" y="140.75" clip-path="url(#clipPath2)" fill="rgb(235,235,235)" width="155" height="21.666" stroke="none"/>
    </g>
    <g font-size="15px" stroke-linecap="butt" transform="matrix(1,0,0,1,51,25)" text-rendering="geometricPrecision" font-family="sans-serif" shape-rendering="geometricPrecision" stroke-miterlimit="1.45">
      <text x="402.6006" xml:space="preserve" y="157.252" clip-path="url(#clipPath2)" stroke="none">repo</text>
      <rect x="282.75" y="140.75" clip-path="url(#clipPath2)" fill="none" width="155" stroke-dasharray="6,2" rx="4" ry="4" height="50"/>
    </g>
    <g fill="rgb(245,245,245)" text-rendering="geometricPrecision" shape-rendering="geometricPrecision" transform="matrix(1,0,0,1,51,25)" stroke="rgb(245,245,245)">
      <rect x="541.2378" y="198.5955" clip-path="url(#clipPath2)" width="155" rx="4" ry="4" height="50" stroke="none"/>
      <rect x="541.2378" y="198.5955" clip-path="url(#clipPath2)" fill="rgb(235,235,235)" width="155" height="21.666" stroke="none"/>
    </g>
    <g font-size="15px" stroke-linecap="butt" transform="matrix(1,0,0,1,51,25)" text-rendering="geometricPrecision" font-family="sans-serif" shape-rendering="geometricPrecision" stroke-miterlimit="1.45">
      <text x="648.8863" xml:space="preserve" y="215.0974" clip-path="url(#clipPath2)" stroke="none">model</text>
      <rect x="541.2378" y="198.5955" clip-path="url(#clipPath2)" fill="none" width="155" stroke-dasharray="6,2" rx="4" ry="4" height="50"/>
    </g>
    <g fill="rgb(245,245,245)" text-rendering="geometricPrecision" shape-rendering="geometricPrecision" transform="matrix(1,0,0,1,51,25)" stroke="rgb(245,245,245)">
      <rect x="163.375" y="240.1649" clip-path="url(#clipPath2)" width="155" rx="4" ry="4" height="50" stroke="none"/>
      <rect x="163.375" y="240.1649" clip-path="url(#clipPath2)" fill="rgb(235,235,235)" width="155" height="21.666" stroke="none"/>
    </g>
    <g font-size="15px" stroke-linecap="butt" transform="matrix(1,0,0,1,51,25)" text-rendering="geometricPrecision" font-family="sans-serif" shape-rendering="geometricPrecision" stroke-miterlimit="1.45">
      <text x="289.4365" xml:space="preserve" y="256.6669" clip-path="url(#clipPath2)" stroke="none">dao</text>
      <rect x="163.375" y="240.1649" clip-path="url(#clipPath2)" fill="none" width="155" stroke-dasharray="6,2" rx="4" ry="4" height="50"/>
    </g>
    <g fill="rgb(245,245,245)" text-rendering="geometricPrecision" shape-rendering="geometricPrecision" transform="matrix(1,0,0,1,51,25)" stroke="rgb(245,245,245)">
      <rect x="348.375" y="240.1649" clip-path="url(#clipPath2)" width="155" rx="4" ry="4" height="50" stroke="none"/>
      <rect x="348.375" y="240.1649" clip-path="url(#clipPath2)" fill="rgb(235,235,235)" width="155" height="21.666" stroke="none"/>
    </g>
    <g font-size="15px" stroke-linecap="butt" transform="matrix(1,0,0,1,51,25)" text-rendering="geometricPrecision" font-family="sans-serif" shape-rendering="geometricPrecision" stroke-miterlimit="1.45">
      <text x="470.6426" xml:space="preserve" y="256.6669" clip-path="url(#clipPath2)" stroke="none">json</text>
      <rect x="348.375" y="240.1649" clip-path="url(#clipPath2)" fill="none" width="155" stroke-dasharray="6,2" rx="4" ry="4" height="50"/>
    </g>
    <g fill="rgb(245,245,245)" text-rendering="geometricPrecision" shape-rendering="geometricPrecision" transform="matrix(1,0,0,1,51,25)" stroke="rgb(245,245,245)">
      <rect x="163.375" y="320.1649" clip-path="url(#clipPath2)" width="155" rx="4" ry="4" height="50" stroke="none"/>
      <rect x="163.375" y="320.1649" clip-path="url(#clipPath2)" fill="rgb(235,235,235)" width="155" height="21.666" stroke="none"/>
    </g>
    <g font-size="15px" stroke-linecap="butt" transform="matrix(1,0,0,1,51,25)" text-rendering="geometricPrecision" font-family="sans-serif" shape-rendering="geometricPrecision" stroke-miterlimit="1.45">
      <text x="284.7563" xml:space="preserve" y="336.6669" clip-path="url(#clipPath2)" stroke="none">data</text>
      <rect x="163.375" y="320.1649" clip-path="url(#clipPath2)" fill="none" width="155" stroke-dasharray="6,2" rx="4" ry="4" height="50"/>
    </g>
    <g fill="rgb(245,245,245)" text-rendering="geometricPrecision" shape-rendering="geometricPrecision" transform="matrix(1,0,0,1,51,25)" stroke="rgb(245,245,245)">
      <rect x="328.0156" y="419.5799" clip-path="url(#clipPath2)" width="155" rx="4" ry="4" height="50" stroke="none"/>
      <rect x="328.0156" y="419.5799" clip-path="url(#clipPath2)" fill="rgb(235,235,235)" width="155" height="21.666" stroke="none"/>
    </g>
    <g font-size="15px" stroke-linecap="butt" transform="matrix(1,0,0,1,51,25)" text-rendering="geometricPrecision" font-family="sans-serif" shape-rendering="geometricPrecision" stroke-miterlimit="1.45">
      <text x="425.7617" xml:space="preserve" y="436.0818" clip-path="url(#clipPath2)" stroke="none">logging</text>
      <rect x="328.0156" y="419.5799" clip-path="url(#clipPath2)" fill="none" width="155" stroke-dasharray="6,2" rx="4" ry="4" height="50"/>
    </g>
    <g fill="rgb(245,245,245)" text-rendering="geometricPrecision" shape-rendering="geometricPrecision" transform="matrix(1,0,0,1,51,25)" stroke="rgb(245,245,245)">
      <rect x="126.7413" y="482.2031" clip-path="url(#clipPath2)" width="155" rx="4" ry="4" height="50" stroke="none"/>
      <rect x="126.7413" y="482.2031" clip-path="url(#clipPath2)" fill="rgb(235,235,235)" width="155" height="21.666" stroke="none"/>
    </g>
    <g font-size="15px" stroke-linecap="butt" transform="matrix(1,0,0,1,51,25)" text-rendering="geometricPrecision" font-family="sans-serif" shape-rendering="geometricPrecision" stroke-miterlimit="1.45">
      <text x="248.0201" xml:space="preserve" y="498.7051" clip-path="url(#clipPath2)" stroke="none">conf</text>
      <rect x="126.7413" y="482.2031" clip-path="url(#clipPath2)" fill="none" width="155" stroke-dasharray="6,2" rx="4" ry="4" height="50"/>
    </g>
    <g fill="rgb(245,245,245)" text-rendering="geometricPrecision" shape-rendering="geometricPrecision" transform="matrix(1,0,0,1,51,25)" stroke="rgb(245,245,245)">
      <rect x="561.349" y="482.2031" clip-path="url(#clipPath2)" width="155" rx="4" ry="4" height="50" stroke="none"/>
      <rect x="561.349" y="482.2031" clip-path="url(#clipPath2)" fill="rgb(235,235,235)" width="155" height="21.666" stroke="none"/>
    </g>
    <g font-size="15px" stroke-linecap="butt" transform="matrix(1,0,0,1,51,25)" text-rendering="geometricPrecision" font-family="sans-serif" shape-rendering="geometricPrecision" stroke-miterlimit="1.45">
      <text x="690.7576" xml:space="preserve" y="498.7051" clip-path="url(#clipPath2)" stroke="none">util</text>
      <rect x="561.349" y="482.2031" clip-path="url(#clipPath2)" fill="none" width="155" stroke-dasharray="6,2" rx="4" ry="4" height="50"/>
      <path fill="none" d="M67.2616 65.25 L110.1079 65.25 L110.1079 65.25 L174.5267 65.25" clip-path="url(#clipPath2)"/>
      <path d="M182.5267 65.25 L170.5267 60.25 L173.5267 65.25 L170.5267 70.25 Z" stroke="none" clip-path="url(#clipPath2)"/>
      <text x="71.8483" xml:space="preserve" font-size="12px" y="84.148" clip-path="url(#clipPath2)" stroke="none">(2) handle</text>
      <path fill="none" d="M318.3486 57.167 L538.9792 57.167 L538.9792 77.6384" clip-path="url(#clipPath2)"/>
      <path d="M538.9792 85.6384 L543.9792 73.6384 L538.9792 76.6384 L533.9792 73.6384 Z" stroke="none" clip-path="url(#clipPath2)"/>
      <path fill="none" d="M461.4397 110.6128 L360.25 110.6128 L360.25 132.7391" clip-path="url(#clipPath2)"/>
      <path d="M360.25 140.7391 L365.25 128.7391 L360.25 131.7391 L355.25 128.7391 Z" stroke="none" clip-path="url(#clipPath2)"/>
      <path fill="none" d="M616.4669 110.6128 L639.7379 110.6128 L639.7379 190.5981" clip-path="url(#clipPath2)"/>
      <path d="M639.7379 198.5981 L644.7379 186.5981 L639.7379 189.5981 L634.7379 186.5981 Z" stroke="none" clip-path="url(#clipPath2)"/>
      <path fill="none" d="M437.7454 166.6072 L595.9879 168.3576 L595.9879 190.5814" clip-path="url(#clipPath2)"/>
      <path d="M595.9879 198.5814 L600.9879 186.5814 L595.9879 189.5814 L590.9879 186.5814 Z" stroke="none" clip-path="url(#clipPath2)"/>
      <path fill="none" d="M319 190.7649 L319 213.6545 L240.875 213.6545 L240.875 232.1894" clip-path="url(#clipPath2)"/>
      <path d="M240.875 240.1894 L245.875 228.1894 L240.875 231.1894 L235.875 228.1894 Z" stroke="none" clip-path="url(#clipPath2)"/>
      <path fill="none" d="M390.25 190.7517 L390.25 209.809 L425.875 209.809 L425.875 232.1629" clip-path="url(#clipPath2)"/>
      <path d="M425.875 240.1629 L430.875 228.1629 L425.875 231.1629 L420.875 228.1629 Z" stroke="none" clip-path="url(#clipPath2)"/>
      <path fill="none" d="M240.875 290.1259 L240.875 312.1447" clip-path="url(#clipPath2)"/>
      <path d="M240.875 320.1447 L245.875 308.1447 L240.875 311.1447 L235.875 308.1447 Z" stroke="none" clip-path="url(#clipPath2)"/>
      <path fill="none" d="M405.5156 390.385 L405.5156 411.573" clip-path="url(#clipPath2)"/>
      <path d="M405.5156 419.573 L410.5156 407.573 L405.5156 410.573 L400.5156 407.573 Z" stroke="none" clip-path="url(#clipPath2)"/>
      <path fill="none" d="M204.2413 390.4217 L204.2413 474.1989" clip-path="url(#clipPath2)"/>
      <path d="M204.2413 482.1989 L209.2413 470.1989 L204.2413 473.1989 L199.2413 470.1989 Z" stroke="none" clip-path="url(#clipPath2)"/>
      <path fill="none" d="M327.9882 444.5799 L231.7049 444.5799 L231.7049 474.208" clip-path="url(#clipPath2)"/>
      <path d="M231.7049 482.208 L236.7049 470.208 L231.7049 473.208 L226.7049 470.208 Z" stroke="none" clip-path="url(#clipPath2)"/>
      <path fill="none" d="M47.8889 90.2642 L47.8889 425.3883 L165.5156 425.3883 L165.5156 474.169" clip-path="url(#clipPath2)"/>
      <path d="M165.5156 482.169 L170.5156 470.169 L165.5156 473.169 L160.5156 470.169 Z" stroke="none" clip-path="url(#clipPath2)"/>
      <text x="-3.5125" xml:space="preserve" font-size="12px" y="118.8702" clip-path="url(#clipPath2)" stroke="none">(1) load</text>
      <path fill="none" d="M638.8489 390.3757 L638.8489 474.1891" clip-path="url(#clipPath2)"/>
      <path d="M638.8489 482.1891 L643.8489 470.1891 L638.8489 473.1891 L633.8489 470.1891 Z" stroke="none" clip-path="url(#clipPath2)"/>
      <path fill="none" d="M483.0322 444.5799 L613.6493 444.5799 L613.6493 474.1817" clip-path="url(#clipPath2)"/>
      <path d="M613.6493 482.1817 L618.6493 470.1817 L613.6493 473.1817 L608.6493 470.1817 Z" stroke="none" clip-path="url(#clipPath2)"/>
      <path fill="none" d="M281.7248 507.2031 L553.382 507.2031" clip-path="url(#clipPath2)"/>
      <path d="M561.382 507.2031 L549.382 502.2031 L552.382 507.2031 L549.382 512.2031 Z" stroke="none" clip-path="url(#clipPath2)"/>
    </g>
  </g>
</svg>
